<svg xmlns="http://www.w3.org/2000/svg" xmlns:xlink="http://www.w3.org/1999/xlink" width="300" zoomAndPan="magnify" viewBox="0 0 810 1439.999935" height="400" preserveAspectRatio="xMidYMid meet" version="1.0"><defs><clipPath id="c23a3bba5d"><path d="M 0 0 L 424 0 L 424 498 L 0 498 Z M 0 0 " clip-rule="nonzero"/></clipPath><clipPath id="eaf184ea44"><path d="M -714.097656 -573.460938 L 207.210938 -868.019531 L 571.761719 272.210938 L -349.546875 566.769531 Z M -714.097656 -573.460938 " clip-rule="nonzero"/></clipPath><clipPath id="364901c6a8"><path d="M 182.21875 396.753906 C 120.503906 412.347656 58.789062 427.945312 -2.925781 443.542969 C -55.589844 459.613281 -108.257812 475.683594 -160.921875 491.753906 C -192.871094 498.328125 -260.632812 507.1875 -320.574219 470.378906 C -371.675781 439 -392.625 389.453125 -408.675781 348.804688 C -440.332031 268.652344 -484.488281 143.226562 -525.125 -28.171875 C -538.304688 -79.199219 -583.796875 -256.972656 -621.878906 -441.136719 C -628.894531 -475.054688 -640.621094 -535.945312 -607.339844 -580.75 C -586.171875 -609.246094 -555.484375 -619.546875 -541.5625 -624.222656 C -457.957031 -652.3125 -328.441406 -696.21875 -164.894531 -749.050781 C -108.851562 -762.554688 -52.808594 -776.0625 3.230469 -789.566406 C 33.820312 -800.246094 99.898438 -818.113281 161.203125 -788.265625 C 221.753906 -758.789062 246.683594 -697.835938 263.390625 -653.242188 C 333.457031 -466.277344 376.804688 -252.792969 396.847656 -143.453125 C 405.558594 -52.039062 413.203125 34.054688 421.308594 125.566406 C 424.753906 164.476562 427.902344 206.0625 405.320312 248.128906 C 386.824219 282.578125 359.636719 301.402344 319.457031 328.554688 C 289.570312 348.757812 243.917969 375.460938 182.21875 396.753906 Z M 182.21875 396.753906 " clip-rule="nonzero"/></clipPath><clipPath id="9f3cb736b0"><path d="M 0 0 L 810 0 L 810 451 L 0 451 Z M 0 0 " clip-rule="nonzero"/></clipPath><clipPath id="0e4eee5c41"><path d="M 1199.742188 -503.816406 L 1039.058594 496.113281 L -198.480469 297.242188 L -37.792969 -702.6875 Z M 1199.742188 -503.816406 " clip-rule="nonzero"/></clipPath><clipPath id="01310d9ce6"><path d="M -130.539062 -125.542969 C -115.910156 -190.566406 -101.285156 -255.589844 -86.660156 -320.617188 C -76.757812 -377.410156 -66.851562 -434.210938 -56.953125 -491.003906 C -47.980469 -523.960938 -24.199219 -591.445312 38.539062 -630.023438 C 92.023438 -662.914062 148.214844 -659.042969 193.78125 -654.808594 C 283.621094 -646.460938 421.667969 -628.375 600.996094 -585.253906 C 654.894531 -573.425781 842.46875 -531.820312 1032.511719 -480.277344 C 1067.511719 -470.785156 1129.941406 -452.929688 1156.046875 -400.648438 C 1172.652344 -367.394531 1167.757812 -333.855469 1165.539062 -318.640625 C 1152.226562 -227.257812 1131.972656 -85.507812 1103.957031 92.25 C 1090.058594 150.988281 1076.164062 209.726562 1062.265625 268.464844 C 1057.773438 302.089844 1043.203125 372.265625 986.324219 415.410156 C 930.144531 458.027344 861.417969 452.476562 811.859375 446.992188 C 604.070312 423.992188 384.148438 363.492188 272.535156 330.492188 C 183.023438 295.382812 98.988281 261.796875 9.675781 226.078125 C -28.304688 210.890625 -68.636719 194.15625 -97.246094 153.164062 C -120.675781 119.589844 -125.398438 85.289062 -131.757812 34.914062 C -136.488281 -2.554688 -139.835938 -57.832031 -130.539062 -125.542969 Z M -130.539062 -125.542969 " clip-rule="nonzero"/></clipPath></defs><rect x="-81" width="300" fill="#ffffff" y="-143.999994" height="300" fill-opacity="1"/><rect x="-81" width="300" fill="#ffffff" y="-143.999994" height="300" fill-opacity="1"/><rect x="-81" width="300" fill="#ffffff" y="0" height="300" fill-opacity="1"/><g clip-path="url(#c23a3bba5d)"><g clip-path="url(#eaf184ea44)"><g clip-path="url(#364901c6a8)"><path fill="#5ce1e6" d="M -709.535156 -574.921875 L 198.089844 -865.101562 L 562.636719 275.128906 L -344.984375 565.3125 Z M -709.535156 -574.921875 " fill-opacity="1" fill-rule="nonzero"/></g></g></g><g clip-path="url(#9f3cb736b0)"><g clip-path="url(#0e4eee5c41)"><g clip-path="url(#01310d9ce6)"><path fill="#a6a6a6" d="M 1198.949219 -498.867188 L 1040.648438 486.210938 L -196.886719 287.34375 L -38.589844 -697.734375 Z M 1198.949219 -498.867188 " fill-opacity="1" fill-rule="nonzero"/></g></g></g></svg>